<svg xmlns="http://www.w3.org/2000/svg" viewBox="0 0 146.3 40.375">
  <g id="page-header__logo" class="page-header__logo">
    <g id="spr-logo-pink-white-mobile" class="page-header__logo--mobile">
      <path d="M0 1.45C0 .74.58.16 1.256.16h7.18c5.087 0 8.436 2.705 8.436 7.148v.064c0 4.86-4.057 7.373-8.854 7.373H2.544v6.825c0 .708-.58 1.288-1.288 1.288C.58 22.858 0 22.278 0 21.57V1.45zm8.114 10.978c3.734 0 6.182-1.996 6.182-4.958v-.065c0-3.22-2.415-4.894-6.054-4.894H2.544v9.918h5.57zM21.73 1.288C21.73.58 22.307 0 22.982 0c.71 0 1.288.58 1.288 1.288V21.57c0 .71-.578 1.29-1.287 1.29-.676 0-1.255-.58-1.255-1.29V1.29zM30.87 1.32c0-.676.58-1.256 1.256-1.256h.354c.58 0 .934.29 1.288.74l13.684 17.45V1.256C47.452.58 47.998 0 48.707 0c.676 0 1.223.58 1.223 1.256v20.348c0 .676-.482 1.19-1.158 1.19h-.13c-.547 0-.933-.32-1.32-.77L33.35 4.153v17.45c0 .675-.548 1.255-1.256 1.255-.677 0-1.224-.58-1.224-1.257V1.32zM56.3 1.288C56.3.58 56.88 0 57.556 0c.708 0 1.287.58 1.287 1.288v12.33L71.69.452c.29-.257.58-.45.998-.45.676 0 1.224.612 1.224 1.256 0 .354-.16.644-.42.9l-7.983 7.92 8.563 10.562c.225.29.354.547.354.934 0 .676-.58 1.288-1.287 1.288-.483 0-.806-.258-1.03-.58l-8.403-10.463-4.862 4.86v4.895a1.29 1.29 0 0 1-1.287 1.288c-.677 0-1.256-.58-1.256-1.288V1.288z"/>
    </g>

    <g id="spr-logo-pink-white-tablet" class="page-header__logo--tablet">
      <path d="M71.874 18.66c0-.707.58-1.287 1.256-1.287h7.18c5.087 0 8.436 2.704 8.436 7.146v.063c0 4.86-4.057 7.373-8.854 7.373h-5.475v6.825c0 .71-.58 1.29-1.288 1.29-.677 0-1.257-.58-1.257-1.29V18.66zm8.114 10.98c3.734 0 6.182-1.995 6.182-4.958v-.063c0-3.22-2.414-4.895-6.053-4.895h-5.7v9.917h5.57zM93.603 18.5c0-.708.58-1.288 1.255-1.288.71 0 1.288.58 1.288 1.288v20.283a1.29 1.29 0 0 1-1.288 1.287c-.676 0-1.255-.58-1.255-1.287V18.5zM102.744 18.532c0-.676.58-1.256 1.256-1.256h.354c.58 0 .935.29 1.288.74l13.684 17.45V18.468c0-.676.547-1.256 1.256-1.256.676 0 1.224.58 1.224 1.256v20.35c0 .675-.48 1.19-1.158 1.19h-.13c-.547 0-.934-.322-1.318-.773l-13.975-17.868v17.45c0 .676-.547 1.256-1.256 1.256-.677 0-1.224-.58-1.224-1.256V18.532h-.002zM128.173 18.5c0-.708.58-1.288 1.257-1.288.708 0 1.286.58 1.286 1.288v12.33l12.848-13.167c.29-.257.58-.45.998-.45.676 0 1.225.61 1.225 1.255 0 .354-.162.644-.42.9l-7.984 7.92 8.564 10.562c.225.29.354.547.354.935 0 .676-.577 1.288-1.285 1.288-.483 0-.806-.258-1.03-.58l-8.402-10.463-4.863 4.86v4.895a1.29 1.29 0 0 1-1.286 1.288c-.677 0-1.257-.58-1.257-1.288V18.5h-.004zM60.462 28.016L55.287 6.65c-.36-2.347-2.593-6.65-8.6-6.65a1.5 1.5 0 0 0 0 3c4.857 0 5.576 3.73 5.64 4.143l4.767 19.7H55.02c-.74-5.926-5.8-10.53-11.926-10.53s-11.186 4.604-11.927 10.53h-1.82c-.74-5.926-5.802-10.53-11.927-10.53S6.235 20.917 5.493 26.843H3.42l4.767-19.7C8.25 6.73 8.97 3 13.827 3a1.5 1.5 0 0 0 0-3c-6.007 0-8.24 4.303-8.6 6.65L.052 28.017c-.266 1.11.53 1.826 1.426 1.826.012 0 .023.004.036.004h3.982c.74 5.926 5.802 10.53 11.927 10.53s11.185-4.604 11.927-10.53h1.814c.742 5.926 5.802 10.53 11.927 10.53s11.187-4.604 11.928-10.53H59c.012 0 .023-.004.036-.004.895 0 1.692-.717 1.426-1.826zm-34.147 1.828c-.715 4.272-4.42 7.53-8.896 7.53-4.476 0-8.18-3.258-8.897-7.53-.082-.488-.135-.988-.135-1.5s.053-1.01.135-1.5c.715-4.27 4.42-7.53 8.896-7.53 4.474 0 8.18 3.26 8.895 7.53.082.49.135.988.135 1.5s-.053 1.01-.135 1.5zm25.675 0c-.716 4.272-4.42 7.53-8.896 7.53-4.475 0-8.18-3.258-8.896-7.53-.082-.488-.135-.988-.135-1.5s.053-1.01.135-1.5c.716-4.27 4.42-7.53 8.896-7.53 4.475 0 8.18 3.26 8.896 7.53.082.49.135.988.135 1.5s-.053 1.01-.135 1.5z"/>
    </g>

    <g id="spr-logo-pink-white-desktop" class="page-header__logo--tablet">
      <path d="M71.874 18.66c0-.707.58-1.287 1.256-1.287h7.18c5.087 0 8.436 2.704 8.436 7.146v.063c0 4.86-4.057 7.373-8.854 7.373h-5.475v6.825c0 .71-.58 1.29-1.288 1.29-.677 0-1.257-.58-1.257-1.29V18.66zm8.114 10.98c3.734 0 6.182-1.995 6.182-4.958v-.063c0-3.22-2.414-4.895-6.053-4.895h-5.7v9.917h5.57zM93.603 18.5c0-.708.58-1.288 1.255-1.288.71 0 1.288.58 1.288 1.288v20.283a1.29 1.29 0 0 1-1.288 1.287c-.676 0-1.255-.58-1.255-1.287V18.5zM102.744 18.532c0-.676.58-1.256 1.256-1.256h.354c.58 0 .935.29 1.288.74l13.684 17.45V18.468c0-.676.547-1.256 1.256-1.256.676 0 1.224.58 1.224 1.256v20.35c0 .675-.48 1.19-1.158 1.19h-.13c-.547 0-.934-.322-1.318-.773l-13.975-17.868v17.45c0 .676-.547 1.256-1.256 1.256-.677 0-1.224-.58-1.224-1.256V18.532h-.002zM128.173 18.5c0-.708.58-1.288 1.257-1.288.708 0 1.286.58 1.286 1.288v12.33l12.848-13.167c.29-.257.58-.45.998-.45.676 0 1.225.61 1.225 1.255 0 .354-.162.644-.42.9l-7.984 7.92 8.564 10.562c.225.29.354.547.354.935 0 .676-.577 1.288-1.285 1.288-.483 0-.806-.258-1.03-.58l-8.402-10.463-4.863 4.86v4.895a1.29 1.29 0 0 1-1.286 1.288c-.677 0-1.257-.58-1.257-1.288V18.5h-.004z"/><path fill="#D22856" d="M98.498 9.875a3.623 3.623 0 0 1-3.623-3.624c0 2.002-1.623 3.625-3.625 3.625a3.625 3.625 0 0 1 3.625 3.624c0-2.002 1.62-3.625 3.623-3.625z"/><g class="page-header__logo--tablet"><path d="M43.094 19.313c.246 0 .49.014.73.033a2.49 2.49 0 0 0-2.136-1.22 1.994 1.994 0 0 1-1.884-1.355c-.727.21-1.425.483-2.09.817.063.017.123.038.19.038a2 2 0 0 1 2 2c0 .096-.016.188-.03.28 1-.38 2.085-.592 3.22-.592z"/><path d="M60.462 28.016L55.287 6.65c-.36-2.347-2.593-6.65-8.6-6.65a1.5 1.5 0 0 0 0 3c4.857 0 5.576 3.73 5.64 4.143l4.767 19.7H55.02c-.444-3.556-2.452-6.627-5.304-8.52a2.503 2.503 0 0 0-1.53 2.302c0 .088-.014.17-.025.256a9.034 9.034 0 0 1 3.83 5.965c.082.49.135.988.135 1.5s-.053 1.012-.135 1.5c-.716 4.272-4.42 7.53-8.896 7.53-4.475 0-8.18-3.258-8.896-7.53-.082-.488-.135-.988-.135-1.5s.053-1.01.135-1.5a8.95 8.95 0 0 1 .808-2.483 1.995 1.995 0 0 1-1.852-1.985.743.743 0 0 0-.192-.49 11.954 11.954 0 0 0-1.795 4.96h-1.82c-.74-5.928-5.802-10.532-11.927-10.532S6.235 20.917 5.493 26.845H3.42L8.187 7.142C8.25 6.73 8.97 3 13.827 3a1.5 1.5 0 0 0 0-3c-6.007 0-8.24 4.303-8.6 6.65L.052 28.017c-.266 1.11.53 1.826 1.426 1.826.012 0 .023.004.036.004h3.982c.08.628.215 1.237.387 1.83a.726.726 0 0 0 .102-.353 2 2 0 0 1 2-2c.166 0 .324.025.478.063a8.337 8.337 0 0 1-.074-1.042c0-.512.052-1.01.134-1.5.715-4.27 4.42-7.53 8.896-7.53s8.18 3.26 8.896 7.53c.082.49.135.988.135 1.5s-.052 1.012-.134 1.5c-.715 4.272-4.42 7.53-8.896 7.53a8.96 8.96 0 0 1-5.386-1.793c-.35.303-.8.492-1.3.492a.75.75 0 0 0-.748.748c0 .29-.065.564-.176.812a11.94 11.94 0 0 0 7.614 2.743c6.125 0 11.185-4.604 11.927-10.53h1.815c.742 5.926 5.802 10.53 11.927 10.53s11.186-4.604 11.927-10.53H59c.012 0 .023-.004.036-.004.895.002 1.692-.715 1.426-1.824z"/></g><g><path fill="#D22856" d="M50.686 16.125a4.5 4.5 0 0 1-4.5-4.5 4.5 4.5 0 0 1-4.498 4.5 4.5 4.5 0 0 1 4.5 4.5c0-2.486 2.012-4.5 4.498-4.5z"/></g><g><path fill="#D22856" d="M37.904 19.626c-1.52 0-2.75-1.23-2.75-2.75 0 1.52-1.23 2.75-2.748 2.75 1.52 0 2.75 1.23 2.75 2.75 0-1.52 1.23-2.75 2.748-2.75z"/></g><g><path fill="#D22856" d="M10.734 34.072c-1.52 0-2.75-1.23-2.75-2.75 0 1.52-1.23 2.75-2.748 2.75 1.52 0 2.75 1.23 2.75 2.748a2.748 2.748 0 0 1 2.748-2.748z"/></g>
    </g>

    <g class="spr-logo-pink-blue-mobile">
      <path d="M71.874 18.66c0-.707.58-1.287 1.256-1.287h7.18c5.087 0 8.436 2.704 8.436 7.146v.062c0 4.86-4.057 7.373-8.854 7.373h-5.475v6.825c0 .708-.58 1.287-1.29 1.287-.675 0-1.255-.58-1.255-1.287l.002-20.12zm8.114 10.98c3.734 0 6.182-1.995 6.182-4.958v-.062c0-3.22-2.414-4.894-6.053-4.894h-5.7v9.917h5.57v-.002zM93.603 18.5c0-.708.58-1.288 1.255-1.288.71 0 1.288.58 1.288 1.288v20.283a1.29 1.29 0 0 1-1.288 1.287c-.676 0-1.255-.58-1.255-1.287V18.5zM102.744 18.532c0-.676.58-1.256 1.256-1.256h.354c.58 0 .935.29 1.288.74l13.684 17.45V18.468c0-.676.547-1.256 1.256-1.256.676 0 1.225.58 1.225 1.256v20.35c0 .676-.48 1.19-1.158 1.19h-.13c-.548 0-.936-.322-1.318-.773l-13.976-17.867v17.45c0 .676-.547 1.256-1.257 1.256-.677 0-1.224-.58-1.224-1.257V18.532h-.002zM128.173 18.5c0-.708.58-1.288 1.257-1.288.708 0 1.286.58 1.286 1.288v12.33l12.848-13.16c.29-.256.58-.45.998-.45.676 0 1.225.612 1.225 1.256 0 .354-.162.644-.42.9l-7.984 7.92 8.564 10.562c.225.29.354.547.354.936 0 .676-.576 1.288-1.284 1.288-.482 0-.807-.26-1.03-.58l-8.4-10.464-4.864 4.86v4.896a1.29 1.29 0 0 1-1.286 1.288c-.677 0-1.257-.58-1.257-1.288V18.5h-.007z"/><path fill="#D22856" d="M60.462 28.016L55.287 6.65c-.36-2.347-2.593-6.65-8.6-6.65a1.5 1.5 0 0 0 0 3c4.857 0 5.576 3.73 5.64 4.143l4.767 19.7H55.02c-.74-5.926-5.8-10.53-11.926-10.53s-11.186 4.604-11.927 10.53h-1.82c-.74-5.926-5.802-10.53-11.927-10.53S6.235 20.917 5.493 26.843H3.42l4.767-19.7C8.25 6.73 8.97 3 13.827 3a1.5 1.5 0 0 0 0-3c-6.007 0-8.24 4.303-8.6 6.65L.052 28.017c-.266 1.11.53 1.826 1.426 1.826.012 0 .023.004.036.004h3.982c.74 5.926 5.802 10.53 11.927 10.53s11.185-4.604 11.927-10.53h1.814c.742 5.926 5.802 10.53 11.927 10.53s11.187-4.604 11.928-10.53H59c.012 0 .023-.004.036-.004.895 0 1.692-.717 1.426-1.826zm-34.147 1.828c-.715 4.272-4.42 7.53-8.896 7.53s-8.18-3.258-8.897-7.53c-.082-.488-.135-.988-.135-1.5s.053-1.01.135-1.5c.715-4.27 4.42-7.53 8.896-7.53s8.18 3.26 8.895 7.53c.082.49.135.988.135 1.5s-.053 1.01-.135 1.5zm25.675 0c-.716 4.272-4.42 7.53-8.896 7.53-4.475 0-8.18-3.258-8.896-7.53-.082-.488-.135-.988-.135-1.5s.053-1.01.135-1.5c.716-4.27 4.42-7.53 8.896-7.53 4.475 0 8.18 3.26 8.896 7.53.082.49.135.988.135 1.5s-.053 1.01-.135 1.5z"/>
    </g>

    <g class="spr-logo-pink-blue-desktop">
      <path d="M71.874 18.66c0-.707.58-1.287 1.256-1.287h7.18c5.087 0 8.436 2.704 8.436 7.146v.062c0 4.86-4.057 7.373-8.854 7.373h-5.475v6.825c0 .708-.58 1.287-1.29 1.287-.675 0-1.255-.58-1.255-1.287l.002-20.12zm8.114 10.98c3.734 0 6.182-1.995 6.182-4.958v-.062c0-3.22-2.414-4.894-6.053-4.894h-5.7v9.917h5.57v-.002zM93.603 18.5c0-.708.58-1.288 1.255-1.288.71 0 1.288.58 1.288 1.288v20.283a1.29 1.29 0 0 1-1.288 1.287c-.676 0-1.255-.58-1.255-1.287V18.5zM102.744 18.532c0-.676.58-1.256 1.256-1.256h.354c.58 0 .935.29 1.288.74l13.684 17.45V18.468c0-.676.547-1.256 1.256-1.256.676 0 1.225.58 1.225 1.256v20.35c0 .676-.48 1.19-1.158 1.19h-.13c-.548 0-.936-.322-1.318-.773l-13.976-17.867v17.45c0 .676-.547 1.256-1.257 1.256-.677 0-1.224-.58-1.224-1.257V18.532h-.002zM128.173 18.5c0-.708.58-1.288 1.257-1.288.708 0 1.286.58 1.286 1.288v12.33l12.848-13.167c.29-.257.58-.45.998-.45.676 0 1.225.61 1.225 1.255 0 .354-.162.644-.42.9l-7.984 7.92 8.564 10.562c.225.29.354.547.354.936 0 .676-.576 1.288-1.284 1.288-.482 0-.807-.26-1.03-.58l-8.4-10.464-4.864 4.86v4.896a1.29 1.29 0 0 1-1.286 1.288c-.677 0-1.257-.58-1.257-1.288V18.5h-.007z"/><path fill="#D22856" d="M98.498 9.875a3.623 3.623 0 0 1-3.623-3.624c0 2.002-1.623 3.625-3.625 3.625a3.625 3.625 0 0 1 3.625 3.624c0-2.002 1.62-3.625 3.623-3.625z"/><g fill="#D22856"><path d="M43.094 19.313c.246 0 .49.014.73.033a2.49 2.49 0 0 0-2.136-1.22 1.994 1.994 0 0 1-1.884-1.355c-.727.21-1.425.483-2.09.817.063.017.123.038.19.038a2 2 0 0 1 2 2c0 .096-.016.188-.03.28 1-.38 2.085-.592 3.22-.592z"/><path d="M60.462 28.016L55.287 6.65c-.36-2.347-2.593-6.65-8.6-6.65a1.5 1.5 0 0 0 0 3c4.857 0 5.576 3.73 5.64 4.143l4.767 19.7H55.02c-.444-3.556-2.452-6.627-5.304-8.52a2.503 2.503 0 0 0-1.53 2.302c0 .088-.014.17-.025.256a9.034 9.034 0 0 1 3.83 5.966c.082.488.135.987.135 1.5 0 .512-.053 1.012-.135 1.5-.716 4.27-4.42 7.53-8.896 7.53-4.475 0-8.18-3.26-8.896-7.53a9.035 9.035 0 0 1-.135-1.5c0-.513.053-1.012.135-1.5.147-.88.427-1.712.808-2.484a1.994 1.994 0 0 1-1.852-1.984.74.74 0 0 0-.192-.488 11.95 11.95 0 0 0-1.795 4.957h-1.82c-.74-5.927-5.802-10.53-11.927-10.53s-11.185 4.6-11.927 10.527H3.42l4.767-19.7C8.25 6.728 8.97 3 13.827 3a1.5 1.5 0 0 0 0-3c-6.007 0-8.24 4.303-8.6 6.65L.052 28.017c-.266 1.11.53 1.826 1.426 1.826.012 0 .023.004.036.004h3.982c.08.63.215 1.237.387 1.83a.726.726 0 0 0 .102-.353 2 2 0 0 1 2-2c.166 0 .324.024.478.062a8.337 8.337 0 0 1-.074-1.042c0-.512.052-1.01.134-1.5.715-4.27 4.42-7.53 8.896-7.53s8.18 3.26 8.896 7.53c.082.49.135.988.135 1.5s-.052 1.012-.134 1.5c-.715 4.272-4.42 7.53-8.896 7.53a8.96 8.96 0 0 1-5.386-1.793c-.35.302-.8.49-1.3.49a.75.75 0 0 0-.748.75c0 .288-.065.562-.176.81a11.94 11.94 0 0 0 7.614 2.744c6.125 0 11.185-4.604 11.927-10.53h1.815c.742 5.927 5.802 10.53 11.927 10.53s11.186-4.604 11.927-10.53H59c.012 0 .023-.004.036-.004.895.002 1.692-.715 1.426-1.824z"/></g><g><path fill="#283645" d="M50.686 16.125a4.5 4.5 0 0 1-4.5-4.5 4.5 4.5 0 0 1-4.498 4.5 4.5 4.5 0 0 1 4.5 4.5c0-2.486 2.012-4.5 4.498-4.5z"/></g><g><path fill="#283645" d="M37.904 19.626c-1.52 0-2.75-1.23-2.75-2.75 0 1.52-1.23 2.75-2.748 2.75 1.52 0 2.75 1.23 2.75 2.75 0-1.52 1.23-2.75 2.748-2.75z"/></g><g><path fill="#283645" d="M10.734 34.072c-1.52 0-2.75-1.23-2.75-2.75 0 1.52-1.23 2.75-2.748 2.75 1.52 0 2.75 1.23 2.75 2.748a2.748 2.748 0 0 1 2.748-2.748z"/></g>
    </g>
  </g>



</svg>
