<svg xmlns="http://www.w3.org/2000/svg" viewBox="0 0 146.3 40.375">

  <symbol id="page-header__logo" class="page-header__logo">
    <g id="spr-logo-pink-white-mobile" class="page-header__logo-icon--mobile">
      <path d="M0 1.45C0 .74.58.16 1.256.16h7.18c5.087 0 8.436 2.705 8.436 7.148v.064c0 4.86-4.057 7.373-8.854 7.373H2.544v6.825c0 .708-.58 1.288-1.288 1.288C.58 22.858 0 22.278 0 21.57V1.45zm8.114 10.978c3.734 0 6.182-1.996 6.182-4.958v-.065c0-3.22-2.415-4.894-6.054-4.894H2.544v9.918h5.57zM21.73 1.288C21.73.58 22.307 0 22.982 0c.71 0 1.288.58 1.288 1.288V21.57c0 .71-.578 1.29-1.287 1.29-.676 0-1.255-.58-1.255-1.29V1.29zM30.87 1.32c0-.676.58-1.256 1.256-1.256h.354c.58 0 .934.29 1.288.74l13.684 17.45V1.256C47.452.58 47.998 0 48.707 0c.676 0 1.223.58 1.223 1.256v20.348c0 .676-.482 1.19-1.158 1.19h-.13c-.547 0-.933-.32-1.32-.77L33.35 4.153v17.45c0 .675-.548 1.255-1.256 1.255-.677 0-1.224-.58-1.224-1.257V1.32zM56.3 1.288C56.3.58 56.88 0 57.556 0c.708 0 1.287.58 1.287 1.288v12.33L71.69.452c.29-.257.58-.45.998-.45.676 0 1.224.612 1.224 1.256 0 .354-.16.644-.42.9l-7.983 7.92 8.563 10.562c.225.29.354.547.354.934 0 .676-.58 1.288-1.287 1.288-.483 0-.806-.258-1.03-.58l-8.403-10.463-4.862 4.86v4.895a1.29 1.29 0 0 1-1.287 1.288c-.677 0-1.256-.58-1.256-1.288V1.288z"/>
    </g>

    <g id="spr-logo-pink-white-tablet" class="page-header__logo-icon--tablet">
      <path d="M71.874 18.66c0-.707.58-1.287 1.256-1.287h7.18c5.087 0 8.436 2.704 8.436 7.146v.063c0 4.86-4.057 7.373-8.854 7.373h-5.475v6.825c0 .71-.58 1.29-1.288 1.29-.677 0-1.257-.58-1.257-1.29V18.66zm8.114 10.98c3.734 0 6.182-1.995 6.182-4.958v-.063c0-3.22-2.414-4.895-6.053-4.895h-5.7v9.917h5.57zM93.603 18.5c0-.708.58-1.288 1.255-1.288.71 0 1.288.58 1.288 1.288v20.283a1.29 1.29 0 0 1-1.288 1.287c-.676 0-1.255-.58-1.255-1.287V18.5zM102.744 18.532c0-.676.58-1.256 1.256-1.256h.354c.58 0 .935.29 1.288.74l13.684 17.45V18.468c0-.676.547-1.256 1.256-1.256.676 0 1.224.58 1.224 1.256v20.35c0 .675-.48 1.19-1.158 1.19h-.13c-.547 0-.934-.322-1.318-.773l-13.975-17.868v17.45c0 .676-.547 1.256-1.256 1.256-.677 0-1.224-.58-1.224-1.256V18.532h-.002zM128.173 18.5c0-.708.58-1.288 1.257-1.288.708 0 1.286.58 1.286 1.288v12.33l12.848-13.167c.29-.257.58-.45.998-.45.676 0 1.225.61 1.225 1.255 0 .354-.162.644-.42.9l-7.984 7.92 8.564 10.562c.225.29.354.547.354.935 0 .676-.577 1.288-1.285 1.288-.483 0-.806-.258-1.03-.58l-8.402-10.463-4.863 4.86v4.895a1.29 1.29 0 0 1-1.286 1.288c-.677 0-1.257-.58-1.257-1.288V18.5h-.004zM60.462 28.016L55.287 6.65c-.36-2.347-2.593-6.65-8.6-6.65a1.5 1.5 0 0 0 0 3c4.857 0 5.576 3.73 5.64 4.143l4.767 19.7H55.02c-.74-5.926-5.8-10.53-11.926-10.53s-11.186 4.604-11.927 10.53h-1.82c-.74-5.926-5.802-10.53-11.927-10.53S6.235 20.917 5.493 26.843H3.42l4.767-19.7C8.25 6.73 8.97 3 13.827 3a1.5 1.5 0 0 0 0-3c-6.007 0-8.24 4.303-8.6 6.65L.052 28.017c-.266 1.11.53 1.826 1.426 1.826.012 0 .023.004.036.004h3.982c.74 5.926 5.802 10.53 11.927 10.53s11.185-4.604 11.927-10.53h1.814c.742 5.926 5.802 10.53 11.927 10.53s11.187-4.604 11.928-10.53H59c.012 0 .023-.004.036-.004.895 0 1.692-.717 1.426-1.826zm-34.147 1.828c-.715 4.272-4.42 7.53-8.896 7.53-4.476 0-8.18-3.258-8.897-7.53-.082-.488-.135-.988-.135-1.5s.053-1.01.135-1.5c.715-4.27 4.42-7.53 8.896-7.53 4.474 0 8.18 3.26 8.895 7.53.082.49.135.988.135 1.5s-.053 1.01-.135 1.5zm25.675 0c-.716 4.272-4.42 7.53-8.896 7.53-4.475 0-8.18-3.258-8.896-7.53-.082-.488-.135-.988-.135-1.5s.053-1.01.135-1.5c.716-4.27 4.42-7.53 8.896-7.53 4.475 0 8.18 3.26 8.896 7.53.082.49.135.988.135 1.5s-.053 1.01-.135 1.5z"/>
    </g>

    <g id="spr-logo-pink-white-desktop" class="page-header__logo-icon--tablet">
      <path d="M71.874 18.66c0-.707.58-1.287 1.256-1.287h7.18c5.087 0 8.436 2.704 8.436 7.146v.063c0 4.86-4.057 7.373-8.854 7.373h-5.475v6.825c0 .71-.58 1.29-1.288 1.29-.677 0-1.257-.58-1.257-1.29V18.66zm8.114 10.98c3.734 0 6.182-1.995 6.182-4.958v-.063c0-3.22-2.414-4.895-6.053-4.895h-5.7v9.917h5.57zM93.603 18.5c0-.708.58-1.288 1.255-1.288.71 0 1.288.58 1.288 1.288v20.283a1.29 1.29 0 0 1-1.288 1.287c-.676 0-1.255-.58-1.255-1.287V18.5zM102.744 18.532c0-.676.58-1.256 1.256-1.256h.354c.58 0 .935.29 1.288.74l13.684 17.45V18.468c0-.676.547-1.256 1.256-1.256.676 0 1.224.58 1.224 1.256v20.35c0 .675-.48 1.19-1.158 1.19h-.13c-.547 0-.934-.322-1.318-.773l-13.975-17.868v17.45c0 .676-.547 1.256-1.256 1.256-.677 0-1.224-.58-1.224-1.256V18.532h-.002zM128.173 18.5c0-.708.58-1.288 1.257-1.288.708 0 1.286.58 1.286 1.288v12.33l12.848-13.167c.29-.257.58-.45.998-.45.676 0 1.225.61 1.225 1.255 0 .354-.162.644-.42.9l-7.984 7.92 8.564 10.562c.225.29.354.547.354.935 0 .676-.577 1.288-1.285 1.288-.483 0-.806-.258-1.03-.58l-8.402-10.463-4.863 4.86v4.895a1.29 1.29 0 0 1-1.286 1.288c-.677 0-1.257-.58-1.257-1.288V18.5h-.004z"/><path fill="#D22856" d="M98.498 9.875a3.623 3.623 0 0 1-3.623-3.624c0 2.002-1.623 3.625-3.625 3.625a3.625 3.625 0 0 1 3.625 3.624c0-2.002 1.62-3.625 3.623-3.625z"/><g class="page-header__logo--tablet"><path d="M43.094 19.313c.246 0 .49.014.73.033a2.49 2.49 0 0 0-2.136-1.22 1.994 1.994 0 0 1-1.884-1.355c-.727.21-1.425.483-2.09.817.063.017.123.038.19.038a2 2 0 0 1 2 2c0 .096-.016.188-.03.28 1-.38 2.085-.592 3.22-.592z"/><path d="M60.462 28.016L55.287 6.65c-.36-2.347-2.593-6.65-8.6-6.65a1.5 1.5 0 0 0 0 3c4.857 0 5.576 3.73 5.64 4.143l4.767 19.7H55.02c-.444-3.556-2.452-6.627-5.304-8.52a2.503 2.503 0 0 0-1.53 2.302c0 .088-.014.17-.025.256a9.034 9.034 0 0 1 3.83 5.965c.082.49.135.988.135 1.5s-.053 1.012-.135 1.5c-.716 4.272-4.42 7.53-8.896 7.53-4.475 0-8.18-3.258-8.896-7.53-.082-.488-.135-.988-.135-1.5s.053-1.01.135-1.5a8.95 8.95 0 0 1 .808-2.483 1.995 1.995 0 0 1-1.852-1.985.743.743 0 0 0-.192-.49 11.954 11.954 0 0 0-1.795 4.96h-1.82c-.74-5.928-5.802-10.532-11.927-10.532S6.235 20.917 5.493 26.845H3.42L8.187 7.142C8.25 6.73 8.97 3 13.827 3a1.5 1.5 0 0 0 0-3c-6.007 0-8.24 4.303-8.6 6.65L.052 28.017c-.266 1.11.53 1.826 1.426 1.826.012 0 .023.004.036.004h3.982c.08.628.215 1.237.387 1.83a.726.726 0 0 0 .102-.353 2 2 0 0 1 2-2c.166 0 .324.025.478.063a8.337 8.337 0 0 1-.074-1.042c0-.512.052-1.01.134-1.5.715-4.27 4.42-7.53 8.896-7.53s8.18 3.26 8.896 7.53c.082.49.135.988.135 1.5s-.052 1.012-.134 1.5c-.715 4.272-4.42 7.53-8.896 7.53a8.96 8.96 0 0 1-5.386-1.793c-.35.303-.8.492-1.3.492a.75.75 0 0 0-.748.748c0 .29-.065.564-.176.812a11.94 11.94 0 0 0 7.614 2.743c6.125 0 11.185-4.604 11.927-10.53h1.815c.742 5.926 5.802 10.53 11.927 10.53s11.186-4.604 11.927-10.53H59c.012 0 .023-.004.036-.004.895.002 1.692-.715 1.426-1.824z"/></g><g><path fill="#D22856" d="M50.686 16.125a4.5 4.5 0 0 1-4.5-4.5 4.5 4.5 0 0 1-4.498 4.5 4.5 4.5 0 0 1 4.5 4.5c0-2.486 2.012-4.5 4.498-4.5z"/></g><g><path fill="#D22856" d="M37.904 19.626c-1.52 0-2.75-1.23-2.75-2.75 0 1.52-1.23 2.75-2.748 2.75 1.52 0 2.75 1.23 2.75 2.75 0-1.52 1.23-2.75 2.748-2.75z"/></g><g><path fill="#D22856" d="M10.734 34.072c-1.52 0-2.75-1.23-2.75-2.75 0 1.52-1.23 2.75-2.748 2.75 1.52 0 2.75 1.23 2.75 2.748a2.748 2.748 0 0 1 2.748-2.748z"/></g>
    </g>
  </symbol>

  <!--  Логотип footer -->
  <symbol  width="146.3" height="40.375" viewBox="0 0 146.3 40.375">

    <g id="spr-logo-pink-blue-mobile" class="page-footer__logo-icon--mobile">
      <path d="M71.874 18.66c0-.707.58-1.287 1.256-1.287h7.18c5.087 0 8.436 2.704 8.436 7.146v.062c0 4.86-4.057 7.373-8.854 7.373h-5.475v6.825c0 .708-.58 1.287-1.29 1.287-.675 0-1.255-.58-1.255-1.287l.002-20.12zm8.114 10.98c3.734 0 6.182-1.995 6.182-4.958v-.062c0-3.22-2.414-4.894-6.053-4.894h-5.7v9.917h5.57v-.002zM93.603 18.5c0-.708.58-1.288 1.255-1.288.71 0 1.288.58 1.288 1.288v20.283a1.29 1.29 0 0 1-1.288 1.287c-.676 0-1.255-.58-1.255-1.287V18.5zM102.744 18.532c0-.676.58-1.256 1.256-1.256h.354c.58 0 .935.29 1.288.74l13.684 17.45V18.468c0-.676.547-1.256 1.256-1.256.676 0 1.225.58 1.225 1.256v20.35c0 .676-.48 1.19-1.158 1.19h-.13c-.548 0-.936-.322-1.318-.773l-13.976-17.867v17.45c0 .676-.547 1.256-1.257 1.256-.677 0-1.224-.58-1.224-1.257V18.532h-.002zM128.173 18.5c0-.708.58-1.288 1.257-1.288.708 0 1.286.58 1.286 1.288v12.33l12.848-13.16c.29-.256.58-.45.998-.45.676 0 1.225.612 1.225 1.256 0 .354-.162.644-.42.9l-7.984 7.92 8.564 10.562c.225.29.354.547.354.936 0 .676-.576 1.288-1.284 1.288-.482 0-.807-.26-1.03-.58l-8.4-10.464-4.864 4.86v4.896a1.29 1.29 0 0 1-1.286 1.288c-.677 0-1.257-.58-1.257-1.288V18.5h-.007z"/><path fill="#D22856" d="M60.462 28.016L55.287 6.65c-.36-2.347-2.593-6.65-8.6-6.65a1.5 1.5 0 0 0 0 3c4.857 0 5.576 3.73 5.64 4.143l4.767 19.7H55.02c-.74-5.926-5.8-10.53-11.926-10.53s-11.186 4.604-11.927 10.53h-1.82c-.74-5.926-5.802-10.53-11.927-10.53S6.235 20.917 5.493 26.843H3.42l4.767-19.7C8.25 6.73 8.97 3 13.827 3a1.5 1.5 0 0 0 0-3c-6.007 0-8.24 4.303-8.6 6.65L.052 28.017c-.266 1.11.53 1.826 1.426 1.826.012 0 .023.004.036.004h3.982c.74 5.926 5.802 10.53 11.927 10.53s11.185-4.604 11.927-10.53h1.814c.742 5.926 5.802 10.53 11.927 10.53s11.187-4.604 11.928-10.53H59c.012 0 .023-.004.036-.004.895 0 1.692-.717 1.426-1.826zm-34.147 1.828c-.715 4.272-4.42 7.53-8.896 7.53s-8.18-3.258-8.897-7.53c-.082-.488-.135-.988-.135-1.5s.053-1.01.135-1.5c.715-4.27 4.42-7.53 8.896-7.53s8.18 3.26 8.895 7.53c.082.49.135.988.135 1.5s-.053 1.01-.135 1.5zm25.675 0c-.716 4.272-4.42 7.53-8.896 7.53-4.475 0-8.18-3.258-8.896-7.53-.082-.488-.135-.988-.135-1.5s.053-1.01.135-1.5c.716-4.27 4.42-7.53 8.896-7.53 4.475 0 8.18 3.26 8.896 7.53.082.49.135.988.135 1.5s-.053 1.01-.135 1.5z"/>
    </g>

    <g id="spr-logo-pink-blue-desktop" class="page-footer__logo-icon--desktop">
      <path d="M71.874 18.66c0-.707.58-1.287 1.256-1.287h7.18c5.087 0 8.436 2.704 8.436 7.146v.062c0 4.86-4.057 7.373-8.854 7.373h-5.475v6.825c0 .708-.58 1.287-1.29 1.287-.675 0-1.255-.58-1.255-1.287l.002-20.12zm8.114 10.98c3.734 0 6.182-1.995 6.182-4.958v-.062c0-3.22-2.414-4.894-6.053-4.894h-5.7v9.917h5.57v-.002zM93.603 18.5c0-.708.58-1.288 1.255-1.288.71 0 1.288.58 1.288 1.288v20.283a1.29 1.29 0 0 1-1.288 1.287c-.676 0-1.255-.58-1.255-1.287V18.5zM102.744 18.532c0-.676.58-1.256 1.256-1.256h.354c.58 0 .935.29 1.288.74l13.684 17.45V18.468c0-.676.547-1.256 1.256-1.256.676 0 1.225.58 1.225 1.256v20.35c0 .676-.48 1.19-1.158 1.19h-.13c-.548 0-.936-.322-1.318-.773l-13.976-17.867v17.45c0 .676-.547 1.256-1.257 1.256-.677 0-1.224-.58-1.224-1.257V18.532h-.002zM128.173 18.5c0-.708.58-1.288 1.257-1.288.708 0 1.286.58 1.286 1.288v12.33l12.848-13.167c.29-.257.58-.45.998-.45.676 0 1.225.61 1.225 1.255 0 .354-.162.644-.42.9l-7.984 7.92 8.564 10.562c.225.29.354.547.354.936 0 .676-.576 1.288-1.284 1.288-.482 0-.807-.26-1.03-.58l-8.4-10.464-4.864 4.86v4.896a1.29 1.29 0 0 1-1.286 1.288c-.677 0-1.257-.58-1.257-1.288V18.5h-.007z"/><path fill="#D22856" d="M98.498 9.875a3.623 3.623 0 0 1-3.623-3.624c0 2.002-1.623 3.625-3.625 3.625a3.625 3.625 0 0 1 3.625 3.624c0-2.002 1.62-3.625 3.623-3.625z"/><g fill="#D22856"><path d="M43.094 19.313c.246 0 .49.014.73.033a2.49 2.49 0 0 0-2.136-1.22 1.994 1.994 0 0 1-1.884-1.355c-.727.21-1.425.483-2.09.817.063.017.123.038.19.038a2 2 0 0 1 2 2c0 .096-.016.188-.03.28 1-.38 2.085-.592 3.22-.592z"/><path d="M60.462 28.016L55.287 6.65c-.36-2.347-2.593-6.65-8.6-6.65a1.5 1.5 0 0 0 0 3c4.857 0 5.576 3.73 5.64 4.143l4.767 19.7H55.02c-.444-3.556-2.452-6.627-5.304-8.52a2.503 2.503 0 0 0-1.53 2.302c0 .088-.014.17-.025.256a9.034 9.034 0 0 1 3.83 5.966c.082.488.135.987.135 1.5 0 .512-.053 1.012-.135 1.5-.716 4.27-4.42 7.53-8.896 7.53-4.475 0-8.18-3.26-8.896-7.53a9.035 9.035 0 0 1-.135-1.5c0-.513.053-1.012.135-1.5.147-.88.427-1.712.808-2.484a1.994 1.994 0 0 1-1.852-1.984.74.74 0 0 0-.192-.488 11.95 11.95 0 0 0-1.795 4.957h-1.82c-.74-5.927-5.802-10.53-11.927-10.53s-11.185 4.6-11.927 10.527H3.42l4.767-19.7C8.25 6.728 8.97 3 13.827 3a1.5 1.5 0 0 0 0-3c-6.007 0-8.24 4.303-8.6 6.65L.052 28.017c-.266 1.11.53 1.826 1.426 1.826.012 0 .023.004.036.004h3.982c.08.63.215 1.237.387 1.83a.726.726 0 0 0 .102-.353 2 2 0 0 1 2-2c.166 0 .324.024.478.062a8.337 8.337 0 0 1-.074-1.042c0-.512.052-1.01.134-1.5.715-4.27 4.42-7.53 8.896-7.53s8.18 3.26 8.896 7.53c.082.49.135.988.135 1.5s-.052 1.012-.134 1.5c-.715 4.272-4.42 7.53-8.896 7.53a8.96 8.96 0 0 1-5.386-1.793c-.35.302-.8.49-1.3.49a.75.75 0 0 0-.748.75c0 .288-.065.562-.176.81a11.94 11.94 0 0 0 7.614 2.744c6.125 0 11.185-4.604 11.927-10.53h1.815c.742 5.927 5.802 10.53 11.927 10.53s11.186-4.604 11.927-10.53H59c.012 0 .023-.004.036-.004.895.002 1.692-.715 1.426-1.824z"/></g><g><path fill="#283645" d="M50.686 16.125a4.5 4.5 0 0 1-4.5-4.5 4.5 4.5 0 0 1-4.498 4.5 4.5 4.5 0 0 1 4.5 4.5c0-2.486 2.012-4.5 4.498-4.5z"/></g><g><path fill="#283645" d="M37.904 19.626c-1.52 0-2.75-1.23-2.75-2.75 0 1.52-1.23 2.75-2.748 2.75 1.52 0 2.75 1.23 2.75 2.75 0-1.52 1.23-2.75 2.748-2.75z"/></g><g><path fill="#283645" d="M10.734 34.072c-1.52 0-2.75-1.23-2.75-2.75 0 1.52-1.23 2.75-2.748 2.75 1.52 0 2.75 1.23 2.75 2.748a2.748 2.748 0 0 1 2.748-2.748z"/></g>
    </g>
  </symbol>

  <!-- Иконки соцсетей social__link -->
  <symbol id="icon-twitter" fill="#d22856">
    <path fill="#d22856" fill-rule="evenodd" clip-rule="evenodd" d="M11.283,0.153c1.736-0.485,3.074,0.263,3.685,1.151 c0.694-0.226,1.372-0.47,2.072-0.691c-0.004,0.841-0.538,1.478-0.883,1.727C16.861,2.506,17.5,1.86,17.5,1.86 c-0.175,0.976-1.035,1.746-1.611,1.977C15.65,10.429,12.617,14.793,5.507,14.66c-0.538,0,0.077,0-0.46,0 c-0.422,0-4.29-0.45-5.047-1.843c2.341,0.192,4.011-0.412,4.835-1.15c-0.989-0.293-2.761-0.464-3.07-2.881 c0.362,0.105,0.583,0.223,1.228,0.117C1.757,8.067,0.385,7.366,0.461,5.218c0.294,0.32,1.1,0.523,1.381,0.461 c-0.725-0.235-2.03-3.281-0.921-4.836C2.794,2.654,4.769,4.364,8.29,4.528C8.506,2.288,9.461,0.787,11.283,0.153z"/>
  </symbol>

  <symbol id="icon-facebook" fill="#d22856">
    <path fill="#d22856" d="M6.275,3.357c0.799,0,1.599,0,2.398,0c0-1.119,0-2.238,0-3.357c-0.959,0-1.92,0-2.878,0C2.656,0.181,1.54,2.387,1.948,6.115 H0v3.517h1.958c0,3.104,0,6.208,0,9.312c1.279,0,2.558,0,3.837,0c0-3.104,0-6.208,0-9.312h2.857V6.115H5.786 C5.765,5.07,5.75,3.709,6.275,3.357z"/>
  </symbol>

  <symbol id="icon-youtube" fill="#d22856">
    <path d="M1.775,13.78C0.799,14.257,0,13.758,0,12.671V1.29c0-1.088,0.799-1.585,1.775-1.109l12.133,5.932 c0.975,0.478,0.975,1.258,0,1.736L1.775,13.78z"/>
  </symbol>

  <symbol id="htmlacademy" viewBox="16 0 28 54">
    <path d="M30.2 5h-.2l-19.7 2.1v36.2l19.7 11.7 19.7-11.7v-36.2l-19.5-2.1zm17 36.8l-17.2 10.2-17.2-10.2v-14.8l17.1 10.2v1.8l-11.7-7v1.8l11.8 7.1v1.9l-11.8-7v1.8l11.8 7 11.9-7.1v-7.6l5.3-3.2v15.1zm-.1-17l-4.7 2.8-2.2 1.3-10.3-6.1v1.8l8.8 5.3h-.1l-.2.1-1.3.7-7.3-4.3v1.8l5.8 3.4-1.4.9-4.3-2.6v1.8l2.9 1.7-2.9 1.7-17-10.1 17-10.2 17.2 10zm.1-1.8l-17.3-10.2-17.1 10.2v-13.6l17.2-1.8 17.2 1.8v13.6z"/>
  </symbol>

  <symbol id="icon-heart" fill="#d22856" viewBox="521.939 473.064 12.545 13">
    <path d="M528.174,485.055c-0.212,0-0.412-0.091-0.552-0.249c-3.798-4.324-4.644-5.298-4.858-5.572l-0.004,0.0 c-0.529-0.675-0.821-1.518-0.821-2.373c0-2.095,1.704-3.799,3.799-3.799c0.934,0,1.804,0.32,2.484,0.898 c0.696-0.578,1.56-0.898,2.463-0.898c2.095,0,3.799,1.704,3.799,3.799c0,0.909-0.318,1.754-0.896,2.381l-4.86,5.561 C528.587,484.964,528.386,485.055,528.174,485.055L528.174,485.055z M523.929,478.349c0.208,0.255,2.471,2.839,4.243,4.858 l4.323-4.944c0.34-0.369,0.52-0.86,0.52-1.399c0-1.285-1.045-2.331-2.33-2.331c-0.729,0-1.421,0.344-1.9,0.943 c-0.142,0.178-0.353,0.267-0.585,0.275c-0.227-0.003-0.439-0.111-0.575-0.294c-0.441-0.587-1.129-0.925-1.887-0.925 c-1.285,0-2.33,1.046-2.33,2.331c0,0.678,0.275,1.171,0.507,1.467C523.919,478.336,523.925,478.342,523.929,478.349z"/>
  </symbol>

  <!--  Размер -->

  <symbol id="icon-crop" viewBox="0 0 48 48">
    <path fill="none" d="M0 0h48v48H0V0z"/><path d="M34 30h4V14a4 4 0 0 0-4-4H18v4h16v16zm-20 4V2h-4v8H2v4h8v20a4 4 0 0 0 4 4h20v8h4v-8h8v-4H14z"/>
  </symbol>

  <!--  яркость -->
  <symbol id="icon-fill" viewBox="0 0 48 48">
    <path fill="none" d="M0 0h48v48H0V0z"/><path d="M33.12 17.88L15.24 0l-2.83 2.83 4.76 4.76L6.88 17.88a3 3 0 0 0 0 4.24l11 11c.58.59 1.35.88 2.12.88s1.54-.29 2.12-.88l11-11a3 3 0 0 0 0-4.24zM10.41 20L20 10.42 29.59 20H10.41zM38 23s-4 4.33-4 7c0 2.21 1.79 4 4 4s4-1.79 4-4c0-2.67-4-7-4-7zM0 40h48v3H0z"/>
  </symbol>

  <!--  контрастность -->
  <symbol id="icon-contrast" viewBox="-35.422 -7.96 31.92 31.92">
    <path d="M-19.462-3.96c6.595 0 11.96 5.365 11.96 11.96s-5.365 11.96-11.96 11.96-11.96-5.365-11.96-11.96 5.365-11.96 11.96-11.96m0-4c-8.814 0-15.96 7.145-15.96 15.96 0 8.813 7.146 15.96 15.96 15.96S-3.502 16.813-3.502 8c0-8.815-7.146-15.96-15.96-15.96z"/><path d="M-19.462 16.33a8.52 8.52 0 0 0 8.52-8.52 8.518 8.518 0 0 0-8.52-8.518"/>
  </symbol>

</svg>
